<svg width="18" height="18" viewBox="0 0 18 18" fill="none" xmlns="http://www.w3.org/2000/svg">
<path d="M8.99984 0.666504C13.6022 0.666504 17.3332 4.39746 17.3332 8.99984C17.3332 13.6022 13.6022 17.3332 8.99984 17.3332C7.5815 17.3332 6.24588 16.9788 5.07675 16.3538L0.666504 17.3332L1.64675 12.9246C1.02119 11.7551 0.666504 10.4188 0.666504 8.99984C0.666504 4.39746 4.39746 0.666504 8.99984 0.666504ZM8.99984 2.33317C5.31794 2.33317 2.33317 5.31794 2.33317 8.99984C2.33317 10.1121 2.60453 11.1816 3.1164 12.1385L3.40777 12.6833L2.86188 15.1384L5.31808 14.593L5.86249 14.884C6.81913 15.3954 7.88809 15.6665 8.99984 15.6665C12.6818 15.6665 15.6665 12.6818 15.6665 8.99984C15.6665 5.31794 12.6818 2.33317 8.99984 2.33317ZM9.83317 4.83317V8.99984H13.1665V10.6665H8.1665V4.83317H9.83317Z" fill="#153351"/>
</svg>
