<svg width="18" height="18" viewBox="0 0 18 18" fill="none" xmlns="http://www.w3.org/2000/svg">
<path d="M14.8332 17.3332H3.1665C1.7858 17.3332 0.666504 16.2139 0.666504 14.8332V1.49984C0.666504 1.0396 1.0396 0.666504 1.49984 0.666504H13.1665C13.6268 0.666504 13.9998 1.0396 13.9998 1.49984V11.4998H17.3332V14.8332C17.3332 16.2139 16.2139 17.3332 14.8332 17.3332ZM13.9998 13.1665V14.8332C13.9998 15.2934 14.3729 15.6665 14.8332 15.6665C15.2934 15.6665 15.6665 15.2934 15.6665 14.8332V13.1665H13.9998ZM12.3332 15.6665V2.33317H2.33317V14.8332C2.33317 15.2934 2.70627 15.6665 3.1665 15.6665H12.3332ZM3.99984 4.83317H10.6665V6.49984H3.99984V4.83317ZM3.99984 8.1665H10.6665V9.83317H3.99984V8.1665ZM3.99984 11.4998H8.1665V13.1665H3.99984V11.4998Z" fill="#153351"/>
</svg>
