<svg width="18" height="18" viewBox="0 0 18 18" fill="none" xmlns="http://www.w3.org/2000/svg">
<path d="M14.0257 12.8472L17.5946 16.4161L16.4161 17.5946L12.8472 14.0257C11.5639 15.0523 9.9365 15.6665 8.1665 15.6665C4.0265 15.6665 0.666504 12.3065 0.666504 8.1665C0.666504 4.0265 4.0265 0.666504 8.1665 0.666504C12.3065 0.666504 15.6665 4.0265 15.6665 8.1665C15.6665 9.9365 15.0523 11.5639 14.0257 12.8472ZM12.3538 12.2288C13.3728 11.1787 13.9998 9.74617 13.9998 8.1665C13.9998 4.94359 11.3894 2.33317 8.1665 2.33317C4.94359 2.33317 2.33317 4.94359 2.33317 8.1665C2.33317 11.3894 4.94359 13.9998 8.1665 13.9998C9.74617 13.9998 11.1787 13.3728 12.2288 12.3538L12.3538 12.2288Z" fill="#153351"/>
</svg>
