<svg width="12" height="13" viewBox="0 0 12 13" fill="none" xmlns="http://www.w3.org/2000/svg">
<path d="M4.2474 0.583496V1.75016H7.7474V0.583496H8.91406V1.75016H11.2474C11.5696 1.75016 11.8307 2.01133 11.8307 2.3335V11.6668C11.8307 11.989 11.5696 12.2502 11.2474 12.2502H0.747396C0.425232 12.2502 0.164062 11.989 0.164062 11.6668V2.3335C0.164062 2.01133 0.425232 1.75016 0.747396 1.75016H3.08073V0.583496H4.2474ZM10.6641 6.41683H1.33073V11.0835H10.6641V6.41683ZM3.08073 2.91683H1.33073V5.25016H10.6641V2.91683H8.91406V4.0835H7.7474V2.91683H4.2474V4.0835H3.08073V2.91683Z" fill="#33506D"/>
</svg>
