<svg width="12" height="12" viewBox="0 0 12 12" fill="none" xmlns="http://www.w3.org/2000/svg">
<path d="M5.9974 11.8332C2.77573 11.8332 0.164062 9.22147 0.164062 5.99984C0.164062 2.77817 2.77573 0.166504 5.9974 0.166504C9.21903 0.166504 11.8307 2.77817 11.8307 5.99984C11.8307 9.22147 9.21903 11.8332 5.9974 11.8332ZM5.9974 10.6665C8.57474 10.6665 10.6641 8.57718 10.6641 5.99984C10.6641 3.42251 8.57474 1.33317 5.9974 1.33317C3.42007 1.33317 1.33073 3.42251 1.33073 5.99984C1.33073 8.57718 3.42007 10.6665 5.9974 10.6665ZM6.58073 5.99984H8.91406V7.1665H5.41406V3.08317H6.58073V5.99984Z" fill="#33506D"/>
</svg>
