<svg width="24" height="24" viewBox="0 0 24 24" fill="none" xmlns="http://www.w3.org/2000/svg">
<g clip-path="url(#clip0_720_13187)">
<path d="M8.93803 9.72179C7.86085 9.72047 6.82817 9.29198 6.06649 8.5303C5.30481 7.76862 4.87632 6.73593 4.875 5.65876C4.87632 4.58149 5.30478 3.5487 6.06643 2.78687C6.82808 2.02503 7.86076 1.59631 8.93803 1.59473C10.0155 1.59605 11.0484 2.02465 11.8103 2.78651C12.5721 3.54838 13.0007 4.58132 13.0021 5.65876C13.0005 6.73603 12.5718 7.76871 11.8099 8.53036C11.0481 9.29201 10.0153 9.72047 8.93803 9.72179ZM8.93803 3.59178C8.40582 3.61519 7.90317 3.84308 7.53485 4.22797C7.16652 4.61285 6.96094 5.12503 6.96094 5.65776C6.96094 6.19049 7.16652 6.70266 7.53485 7.08755C7.90317 7.47243 8.40582 7.70033 8.93803 7.72374C10.0779 7.72374 11.004 6.79765 11.004 5.65876C11.004 4.51987 10.0769 3.59178 8.93803 3.59178Z" fill="#33506D"/>
<path d="M1.99805 22.326H0C0 22.0393 0.00799219 21.7535 0.0229776 21.4718C0.345662 15.4787 4.22288 11.1289 9.24197 11.1289C10.7735 11.1289 12.289 11.6224 13.6247 12.5565L12.4808 14.1939C11.4678 13.4866 10.3779 13.128 9.24197 13.128C5.25687 13.128 2.28677 16.6036 2.01903 21.5797C2.00504 21.8255 1.99805 22.0742 1.99805 22.326Z" fill="#33506D"/>
<path d="M23.9979 22.3263H21.9998C21.9998 19.3782 20.0817 16.9785 17.725 16.9785C15.3683 16.9785 13.4512 19.3772 13.4512 22.3263H11.4531C11.4531 18.2753 14.2664 14.9805 17.725 14.9805C21.1836 14.9805 23.9979 18.2753 23.9979 22.3263Z" fill="#33506D"/>
<path d="M17.7283 13.9858C16.8331 13.9845 15.975 13.6283 15.342 12.9954C14.7091 12.3624 14.3529 11.5043 14.3516 10.6091C14.3526 9.71389 14.7087 8.85563 15.3417 8.2226C15.9748 7.58958 16.833 7.23348 17.7283 7.23242C18.6236 7.23348 19.482 7.58955 20.1151 8.22254C20.7483 8.85554 21.1046 9.7138 21.106 10.6091C21.1049 11.5045 20.7487 12.3629 20.1154 12.996C19.4822 13.6291 18.6237 13.985 17.7283 13.9858ZM17.7283 9.23047C16.968 9.23047 16.3496 9.84887 16.3496 10.6091C16.3593 10.9685 16.5088 11.3099 16.7664 11.5606C17.024 11.8113 17.3693 11.9517 17.7288 11.9517C18.0882 11.9517 18.4335 11.8113 18.6911 11.5606C18.9487 11.3099 19.0982 10.9685 19.1079 10.6091C19.1079 9.84887 18.4895 9.23047 17.7283 9.23047Z" fill="#33506D"/>
</g>
<defs>
<clipPath id="clip0_720_13187">
<rect width="24" height="24" fill="white"/>
</clipPath>
</defs>
</svg>
