<svg width="18" height="18" viewBox="0 0 18 18" fill="none" xmlns="http://www.w3.org/2000/svg">
<path d="M12 0C12.5523 0 13 0.44772 13 1V5C13 5.55228 12.5523 6 12 6H10V8H14C14.5523 8 15 8.4477 15 9V12H17C17.5523 12 18 12.4477 18 13V17C18 17.5523 17.5523 18 17 18H11C10.4477 18 10 17.5523 10 17V13C10 12.4477 10.4477 12 11 12H13V10H5V12H7C7.5523 12 8 12.4477 8 13V17C8 17.5523 7.5523 18 7 18H1C0.44772 18 0 17.5523 0 17V13C0 12.4477 0.44772 12 1 12H3V9C3 8.4477 3.44772 8 4 8H8V6H6C5.44772 6 5 5.55228 5 5V1C5 0.44772 5.44772 0 6 0H12ZM6 14H2V16H6V14ZM16 14H12V16H16V14ZM11 2H7V4H11V2Z" fill="#33506D"/>
</svg>
