<svg width="20" height="20" viewBox="0 0 20 20" fill="none" xmlns="http://www.w3.org/2000/svg">
<path d="M3.33208 1.66699C2.87291 1.66699 2.5 2.03703 2.5 2.49349V17.5072C2.5 17.9542 2.87063 18.3337 3.32783 18.3337H16.6722C17.1292 18.3337 17.5 17.9577 17.5 17.4941L17.4998 5.83366L13.3333 1.66699H3.33208ZM8.75 6.25033H10.4167C10.4167 8.32528 12.203 10.5507 14.4302 11.2931L14.0488 12.9087C11.4362 12.5354 8.73508 13.6507 6.29558 15.2771L5.31275 13.9329C6.21791 13.2088 7.08577 11.9801 7.72916 10.5448C8.37025 9.11474 8.75 7.5649 8.75 6.25033ZM9.25 11.2267C9.47275 10.7297 9.67025 10.2139 9.83642 9.69074C10.2295 10.2946 10.7127 10.8488 11.2585 11.3297C10.4403 11.4762 9.63883 11.7167 8.86275 12.0233C9 11.7622 9.12925 11.496 9.25 11.2267Z" fill="#969AAE"/>
</svg>
