<svg width="20" height="20" viewBox="0 0 20 20" fill="none" xmlns="http://www.w3.org/2000/svg">
<path d="M14.1665 5.00033H18.3332V6.66699H16.6665V17.5003C16.6665 17.9606 16.2934 18.3337 15.8332 18.3337H4.1665C3.70627 18.3337 3.33317 17.9606 3.33317 17.5003V6.66699H1.6665V5.00033H5.83317V2.50033C5.83317 2.04009 6.20627 1.66699 6.6665 1.66699H13.3332C13.7934 1.66699 14.1665 2.04009 14.1665 2.50033V5.00033ZM14.9998 6.66699H4.99984V16.667H14.9998V6.66699ZM7.49984 9.16699H9.1665V14.167H7.49984V9.16699ZM10.8332 9.16699H12.4998V14.167H10.8332V9.16699ZM7.49984 3.33366V5.00033H12.4998V3.33366H7.49984Z" fill="#FF7D00"/>
</svg>
