<svg width="15" height="14" viewBox="0 0 15 14" fill="none" xmlns="http://www.w3.org/2000/svg">
<path d="M11.0002 10.9218V9.66634L14.3335 11.6663L11.0002 13.6663V12.2727C8.94843 11.9795 7.1677 10.6386 6.33543 8.69654L6.3335 8.69207L6.33156 8.69654C5.38612 10.9026 3.21688 12.333 0.816716 12.333H0.333496V10.9997H0.816716C2.68352 10.9997 4.37069 9.88714 5.10606 8.17127L5.60818 6.99967L5.10606 5.82807C4.37069 4.11219 2.68352 2.99967 0.816716 2.99967H0.333496V1.66634H0.816716C3.21688 1.66634 5.38612 3.09672 6.33156 5.30283L6.3335 5.30728L6.33543 5.30283C7.1677 3.36074 8.94843 2.01982 11.0002 1.72668V0.333008L14.3335 2.33301L11.0002 4.33301V3.07757C9.48456 3.35809 8.18263 4.37747 7.56096 5.82807L7.05883 6.99967L7.56096 8.17127C8.18263 9.62187 9.48456 10.6413 11.0002 10.9218Z" fill="#33506D"/>
</svg>
