<svg width="14" height="14" viewBox="0 0 14 14" fill="none" xmlns="http://www.w3.org/2000/svg">
<path d="M9.13224 5.6294C8.8431 5.35556 8.6571 4.99051 8.6055 4.59565L8.3369 2.54068L6.5165 3.53125C6.1667 3.72158 5.76204 3.78568 5.37056 3.71274L3.33316 3.33319L3.71271 5.37059C3.78564 5.76209 3.72155 6.16676 3.53122 6.51649L2.54064 8.33689L4.59562 8.60549C4.99048 8.65716 5.35552 8.84316 5.62938 9.13222L7.05457 10.6369L7.94504 8.76549C8.11617 8.40589 8.40584 8.11622 8.76544 7.94509L10.6368 7.05462L9.13224 5.6294ZM9.14904 9.33836L7.6739 12.4385C7.57897 12.638 7.3403 12.7227 7.14084 12.6278C7.09637 12.6066 7.05617 12.5774 7.0223 12.5417L4.66136 10.0492C4.59816 9.98242 4.51392 9.93949 4.4228 9.92762L1.01861 9.48262C0.799556 9.45402 0.645196 9.25322 0.673829 9.03416C0.680209 8.98536 0.695563 8.93809 0.719103 8.89482L2.36004 5.87922C2.40397 5.79849 2.41876 5.70509 2.40193 5.61478L1.77317 2.2397C1.73271 2.02252 1.87597 1.81366 2.09315 1.7732C2.14157 1.76418 2.19124 1.76418 2.23966 1.7732L5.61475 2.40196C5.7051 2.41879 5.7985 2.404 5.87917 2.36008L8.89477 0.719137C9.08884 0.613543 9.33177 0.685256 9.4373 0.879296C9.4609 0.922563 9.47624 0.969803 9.48257 1.01864L9.92757 4.42284C9.9395 4.51396 9.98244 4.5982 10.0491 4.66139L12.5416 7.02229C12.702 7.17422 12.7089 7.42742 12.557 7.58782C12.5231 7.62356 12.4829 7.65276 12.4384 7.67389L9.33837 9.14909C9.25537 9.18856 9.1885 9.25542 9.14904 9.33836ZM9.68024 10.6231L10.623 9.68029L13.4515 12.5087L12.5087 13.4515L9.68024 10.6231Z" fill="#fff"/>
</svg>
